<svg id="Layer_1" data-name="Layer 1" xmlns="http://www.w3.org/2000/svg" viewBox="0 0 125.88 115"><defs><style>.cls-1{fill:#fff;}.cls-2{opacity:0.48;}.cls-3{fill:#4d08ba;}.cls-4{opacity:0.17;}</style></defs><title>Untitled-2</title><path class="cls-1" d="M126.52,65l.19-.09-2.39-1.22-5.75-3-8.27-4.49a10,10,0,0,0-1.58-.63L96.43,49.22l-7.71-3.89h0l-13.86-7L68,34.85h0l-13.86-7L14.94,8a10.15,10.15,0,0,0-1.51-.61l-.07,0-.12,0a9.61,9.61,0,0,0-10.95,4.5,6.9,6.9,0,0,0-.44.78,7.5,7.5,0,0,0-.78,5.22v94.56A9.56,9.56,0,0,0,14.94,121L30.66,113a9.33,9.33,0,0,0,1.81-.69l21.65-10.86L68,94.52h0l6.9-3.46L88.7,84.12h0l7.73-3.88L108.83,74l0,0,4-2.05,13.77-6.91Z" transform="translate(-0.89 -7)"/><g class="cls-2"><path class="cls-3" d="M126.71,64.92l-.57.29-29.66,15L74.91,90.68,54.17,101.16l-17.93,9.06L15,121a9.55,9.55,0,0,1-13.86-8.53V16.57A9.55,9.55,0,0,1,15,8l39.18,19.8L74.91,38.32l21.57,10.9Z" transform="translate(-0.89 -7)"/></g><g class="cls-2"><path class="cls-3" d="M126.71,65.08,96.48,80.24,74.91,91.06l-20.74,10.4L32.52,112.32a9.55,9.55,0,0,1-13.84-8.54V25.66a9.55,9.55,0,0,1,13.89-8.51L36.24,19l17.93,9.13L74.91,38.7l21.57,11,29.66,15.1Z" transform="translate(-0.89 -7)"/></g><g class="cls-2"><path class="cls-3" d="M126.14,64.79l-29.66,15-21.57,11L54.17,101.31l-4.05,2.06a9.56,9.56,0,0,1-13.88-8.52V34.5A9.55,9.55,0,0,1,50.09,26L54.17,28,74.91,38.45,96.48,49.3Z" transform="translate(-0.89 -7)"/></g><g class="cls-2"><path class="cls-3" d="M126.14,64.79l.57.29L96.48,80.24,74.91,91.06,68,94.52A9.55,9.55,0,0,1,54.17,86V43.37A9.55,9.55,0,0,1,68,34.85l6.87,3.47,21.57,10.9Z" transform="translate(-0.89 -7)"/></g><g class="cls-2"><path class="cls-3" d="M126.14,64.79l.57.29L96.48,80.24l-7.73,3.88a9.55,9.55,0,0,1-13.84-8.54V53.86a9.56,9.56,0,0,1,13.87-8.53l7.7,3.89Z" transform="translate(-0.89 -7)"/></g><g class="cls-2"><path class="cls-3" d="M126.14,64.79l.57.29L110.32,73.3a9.55,9.55,0,0,1-13.84-8.54h0a9.56,9.56,0,0,1,13.87-8.53Z" transform="translate(-0.89 -7)"/></g><g class="cls-4"><path class="cls-1" d="M13.41,7.4,126.76,64.92,108.93,74,5.4,22.61c-4.2-2.09-5.59-5.76-3.5-10A10.18,10.18,0,0,1,13.41,7.4Z" transform="translate(-0.89 -7)"/></g></svg>